<svg xmlns="http://www.w3.org/2000/svg" xmlns:xlink="http://www.w3.org/1999/xlink" width="500" zoomAndPan="magnify" viewBox="0 0 375 374.999991" height="500" preserveAspectRatio="xMidYMid meet" version="1.0"><defs><clipPath id="86655ff3a1"><path d="M 44 27.605469 L 330 27.605469 L 330 326.105469 L 44 326.105469 Z M 44 27.605469 " clip-rule="nonzero"/></clipPath><clipPath id="90674f9486"><path d="M 148 294 L 226 294 L 226 314 L 148 314 Z M 148 294 " clip-rule="nonzero"/></clipPath><clipPath id="d337d923ca"><path d="M 209.828125 264.449219 L 230.34375 304.5 L 165.597656 337.667969 L 145.078125 297.617188 Z M 209.828125 264.449219 " clip-rule="nonzero"/></clipPath><clipPath id="a7ee5a76ab"><path d="M 209.828125 264.449219 L 230.34375 304.5 L 165.597656 337.667969 L 145.078125 297.617188 Z M 209.828125 264.449219 " clip-rule="nonzero"/></clipPath><clipPath id="09d3b0322d"><path d="M 209.828125 264.449219 L 230.34375 304.5 L 165.597656 337.667969 L 145.078125 297.617188 Z M 209.828125 264.449219 " clip-rule="nonzero"/></clipPath></defs><g clip-path="url(#86655ff3a1)"><path fill="#ff5757" d="M 266.695312 326.175781 L 108.085938 326.175781 C 73.15625 326.175781 44.816406 297.835938 44.816406 263.125 L 44.816406 160.316406 C 44.816406 125.386719 73.15625 97.046875 108.085938 97.046875 L 180.578125 97.046875 L 180.800781 72.878906 C 171.351562 70.023438 164.324219 61.238281 164.324219 50.691406 C 164.324219 37.949219 174.867188 27.625 187.609375 27.625 C 200.351562 27.625 210.894531 37.949219 210.894531 50.691406 C 210.894531 61.238281 203.648438 70.246094 193.980469 73.101562 L 193.761719 97.046875 L 266.695312 97.046875 C 301.40625 97.046875 329.746094 125.386719 329.746094 160.316406 L 329.746094 263.347656 C 329.746094 298.054688 301.40625 326.175781 266.695312 326.175781 Z M 127.855469 226.441406 C 109.183594 226.441406 94.464844 211.722656 94.464844 193.265625 C 94.464844 174.59375 109.183594 159.875 127.855469 159.875 C 146.527344 159.875 161.027344 174.59375 161.027344 193.265625 C 161.027344 211.722656 146.527344 226.441406 127.855469 226.441406 Z M 127.855469 173.054688 C 116.433594 173.054688 107.644531 181.84375 107.644531 193.265625 C 107.644531 204.472656 116.433594 213.257812 127.855469 213.257812 C 139.058594 213.257812 148.066406 204.472656 148.066406 193.265625 C 148.066406 181.84375 139.058594 173.054688 127.855469 173.054688 Z M 247.144531 225.121094 C 228.472656 225.121094 213.53125 210.183594 213.53125 191.730469 C 213.53125 173.277344 228.472656 158.335938 247.144531 158.335938 C 265.378906 158.335938 280.316406 173.277344 280.316406 191.730469 C 280.316406 210.183594 265.378906 225.121094 247.144531 225.121094 Z M 247.144531 171.519531 C 235.71875 171.519531 226.714844 180.746094 226.714844 191.730469 C 226.714844 202.933594 235.71875 212.160156 247.144531 212.160156 C 258.347656 212.160156 267.136719 202.933594 267.136719 191.730469 C 267.136719 180.304688 258.128906 171.519531 247.144531 171.519531 Z M 184.972656 265.105469 C 172.453125 265.105469 161.46875 259.171875 155.316406 253.898438 C 152.460938 251.484375 152.242188 247.089844 154.65625 244.671875 C 157.074219 242.039062 161.027344 241.597656 163.882812 244.234375 C 165.859375 245.992188 184.972656 261.148438 203.207031 244.453125 C 205.84375 242.039062 209.796875 242.039062 212.652344 244.671875 C 215.070312 247.53125 215.070312 251.484375 212.433594 254.121094 C 203.207031 262.027344 193.761719 265.105469 184.972656 265.105469 Z M 184.972656 265.105469 " fill-opacity="1" fill-rule="evenodd"/></g><path fill="#ff5757" d="M 31.632812 255.65625 L 29 255.65625 C 13.179688 255.65625 0 242.695312 0 226.660156 L 0 181.84375 C 0 165.808594 13.179688 152.625 29 152.625 L 32.074219 152.625 C 31.855469 155.042969 31.632812 157.679688 31.632812 160.316406 Z M 31.632812 255.65625 " fill-opacity="1" fill-rule="evenodd"/><path fill="#ff5757" d="M 345.5625 255.65625 L 342.925781 255.65625 L 342.925781 160.316406 C 342.925781 157.460938 342.707031 154.824219 342.488281 152.40625 L 345.5625 152.40625 C 361.820312 152.40625 375 165.367188 375 181.625 L 375 226.660156 C 375 242.914062 361.820312 255.65625 345.5625 255.65625 Z M 345.5625 255.65625 " fill-opacity="1" fill-rule="evenodd"/><g clip-path="url(#90674f9486)"><g clip-path="url(#d337d923ca)"><g clip-path="url(#a7ee5a76ab)"><g clip-path="url(#09d3b0322d)"><path fill="#ffffff" d="M 148.628906 303.398438 C 157.4375 291.289062 175.863281 298.507812 187.097656 302.398438 C 200.53125 307.203125 212.410156 307.84375 222.976562 297.460938 C 223.773438 296.761719 224.679688 295.714844 225.355469 294.78125 C 223.101562 306.164062 210.207031 314.816406 198.660156 313.132812 C 184.800781 310.878906 172.355469 302.933594 158.058594 302.078125 C 154.601562 302.09375 150.796875 301.996094 148.882812 305.023438 " fill-opacity="1" fill-rule="nonzero"/></g></g></g></g></svg>