<svg xmlns="http://www.w3.org/2000/svg" xmlns:xlink="http://www.w3.org/1999/xlink" width="500" zoomAndPan="magnify" viewBox="0 0 375 245.249991" height="327" preserveAspectRatio="xMidYMid meet" version="1.0"><defs><clipPath id="c6858c35e1"><path d="M 0.570312 0 L 373.679688 0 L 373.679688 244.503906 L 0.570312 244.503906 Z M 0.570312 0 " clip-rule="nonzero"/></clipPath><clipPath id="ee2ba1ed2f"><path d="M 194 11 L 279 11 L 279 93 L 194 93 Z M 194 11 " clip-rule="nonzero"/></clipPath><clipPath id="2c77300daf"><path d="M 228.0625 0 L 289.613281 49.929688 L 252.402344 95.804688 L 190.851562 45.875 Z M 228.0625 0 " clip-rule="nonzero"/></clipPath><clipPath id="0a7c3938d4"><path d="M 228.0625 0 L 289.613281 49.929688 L 252.402344 95.804688 L 190.851562 45.875 Z M 228.0625 0 " clip-rule="nonzero"/></clipPath><clipPath id="29238df426"><path d="M 228.0625 0 L 289.613281 49.929688 L 252.402344 95.804688 L 190.851562 45.875 Z M 228.0625 0 " clip-rule="nonzero"/></clipPath><clipPath id="4e283ce221"><path d="M 228.113281 0.0429688 L 289.5625 49.886719 L 252.355469 95.757812 L 190.90625 45.914062 Z M 228.113281 0.0429688 " clip-rule="nonzero"/></clipPath></defs><g clip-path="url(#c6858c35e1)"><path fill="#000000" d="M 107.246094 139.296875 L 54.140625 244.503906 L 0.632812 244.503906 L 80.648438 86.585938 Z M 247.859375 244.503906 L 194.261719 244.503906 L 173.59375 205.335938 L 106.023438 205.335938 L 129.382812 158.34375 L 150.632812 158.496094 L 97.492188 53.320312 L 124.0625 0 Z M 373.792969 244.503906 L 326.25 244.503906 L 326.25 103.585938 L 260.148438 157.792969 L 205.605469 112.972656 L 146.503906 2.445312 L 260.851562 95.878906 L 373.792969 2.539062 Z M 373.792969 244.503906 " fill-opacity="1" fill-rule="nonzero"/></g><g clip-path="url(#ee2ba1ed2f)"><g clip-path="url(#2c77300daf)"><g clip-path="url(#0a7c3938d4)"><g clip-path="url(#29238df426)"><g clip-path="url(#4e283ce221)"><path fill="#000000" d="M 217.054688 21.597656 C 213.03125 24.40625 210.902344 25.175781 207.230469 29.667969 C 204.027344 33.597656 200.851562 37.550781 197.644531 41.488281 C 193.363281 46.75 193.183594 47.734375 198.535156 52.101562 C 204.070312 56.625 205.097656 53.992188 209.113281 49.082031 L 245.472656 78.519531 C 241.664062 83.300781 239.148438 85.078125 244.441406 89.339844 C 251.992188 95.433594 251.546875 92.757812 264.617188 76.660156 C 268.140625 72.316406 269.003906 69.671875 270.691406 65.097656 C 274.351562 67.867188 285.355469 63.109375 273.234375 56.074219 C 274.113281 53.832031 274.703125 51.523438 275.378906 49.167969 C 276.238281 46.199219 276.765625 45.410156 276.507812 42.644531 C 276.289062 40.300781 274.90625 38.273438 272.945312 36.496094 L 272.058594 35.6875 L 244.300781 13.316406 C 239.132812 9.203125 235.160156 11.890625 231.257812 13.96875 C 229.738281 14.773438 226.605469 16.785156 225.191406 17.019531 C 216.117188 7.058594 213.65625 18.617188 217.054688 21.597656 Z M 218.617188 44.878906 L 223.035156 39.429688 L 252.074219 62.980469 L 247.652344 68.433594 Z M 216.136719 39.789062 C 214.679688 41.585938 212.027344 41.859375 210.214844 40.390625 C 208.40625 38.921875 208.125 36.273438 209.582031 34.472656 C 211.039062 32.675781 213.699219 32.394531 215.511719 33.863281 C 217.324219 35.332031 217.59375 37.992188 216.136719 39.789062 Z M 259.699219 75.125 C 258.242188 76.921875 255.585938 77.191406 253.777344 75.726562 C 251.960938 74.253906 251.679688 71.601562 253.140625 69.804688 C 254.597656 68.007812 257.253906 67.722656 259.074219 69.199219 C 260.878906 70.664062 261.15625 73.328125 259.699219 75.125 Z M 242.476562 16.292969 C 244.90625 17.402344 254.507812 25.765625 257.402344 28.109375 C 272.097656 40.03125 273.210938 38.4375 270.515625 47.449219 C 269.804688 49.816406 269.101562 52.25 268.390625 54.570312 C 267.792969 56.492188 267.21875 61.03125 264.882812 60.925781 C 263.148438 60.847656 230.363281 33.535156 227.269531 31.027344 C 220.191406 25.28125 220.242188 25.808594 229.058594 21.011719 C 234.164062 18.226562 238.78125 14.605469 242.476562 16.292969 " fill-opacity="1" fill-rule="evenodd"/></g></g></g></g></g></svg>